<svg class="home__blob" width="445" height="532" viewBox="0 0 445 532" fill="none" xmlns="http://www.w3.org/2000/svg" xmlns:xlink="http://www.w3.org/1999/xlink">
<g clip-path="url(#clip0_5_1695)">
<g opacity="0.2">
<path opacity="0.2" d="M222.5 532.002C345.383 532.002 445 517.889 445 500.479C445 483.07 345.383 468.957 222.5 468.957C99.6166 468.957 0 483.07 0 500.479C0 517.889 99.6166 532.002 222.5 532.002Z" fill="#000073"/>
</g>
<path d="M364.082 481.09C353.736 486.209 342.689 489.785 331.353 491.934C261.465 505.15 190.719 505.991 119.049 493.28C116.624 492.84 114.189 492.403 111.753 491.934C103.7 490.406 95.8006 488.143 88.1884 485.133C88.1739 485.129 88.1595 485.125 88.1595 485.125H88.1703C85.0914 483.908 82.0541 482.578 79.0819 481.108C26.2769 454.992 22.2079 407.692 48.3222 392.496C28.5806 327.383 41.7814 268.436 108.275 219.455H334.862C342.373 224.994 349.21 230.655 355.388 236.436C403.92 281.84 412.327 334.744 394.815 392.496C420.927 407.692 416.86 454.974 364.082 481.09Z" fill="#7D65EF"/>
<g opacity="0.3">
<path opacity="0.3" d="M116.269 259.304C116.269 259.304 113.936 289.139 93.6451 301.872L82.5619 299.669C91.1534 313.31 92.8229 327.293 88.4666 341.576C96.471 349.213 99.3998 358.155 99.4161 367.845C99.4161 367.845 127.543 374.696 130.848 366.601C134.153 358.506 140.446 336.258 143.83 330.102C147.214 323.946 162.762 280.669 162.762 280.669" fill="#000073"/>
</g>
<g opacity="0.55">
<path opacity="0.55" d="M380.091 264.99C370.276 252.95 357.981 241.369 342.95 230.3H116.362C49.8707 279.271 36.6681 338.228 56.4006 403.34C39.4868 413.184 35.2407 436.498 48.6944 458.795C26.0981 433.669 28.6258 403.957 48.3204 392.497C28.5789 327.385 41.7797 268.438 108.273 219.457H334.862C354.351 233.813 369.259 249.019 380.091 264.99Z" fill="white"/>
</g>
<g opacity="0.3">
<path opacity="0.3" d="M354.752 483.892C407.53 457.776 411.597 410.494 385.484 395.298C402.996 337.546 394.591 284.642 346.057 239.238C342.969 239.636 339.986 240.153 337.178 240.797C337.8 240.582 338.409 240.372 339.002 240.171C317.692 247.411 275.796 264.476 275.796 264.476L267.25 417.873C276.514 485.189 190.271 490.326 88.1594 485.124C88.1594 485.124 100.755 488.448 119.049 493.278C190.719 505.989 261.466 505.15 331.353 491.932C334.251 491.382 337.13 490.737 339.983 490C345.027 488.282 349.967 486.26 354.752 483.892ZM344.975 301.867C339.825 284.372 359.072 262.768 369.801 299.233C377.657 314.187 375.652 329.234 372.134 344.291L373.729 358.591C374.643 366.811 369.633 374.62 361.732 377.011C352.168 379.907 344.518 375.712 338.315 366.214C337.457 355.378 340.395 346.609 350.023 341.489C341.858 329.963 339.348 316.969 344.975 301.867Z" fill="#000073"/>
</g>
<path d="M126.105 416.704C126.065 416.712 125.904 416.786 125.785 416.838C125.662 416.887 125.52 416.963 125.384 417.026C125.111 417.153 124.835 417.3 124.556 417.452C124 417.739 123.447 418.085 122.896 418.418C121.805 419.118 120.715 419.859 119.687 420.691C117.615 422.334 115.665 424.184 113.902 426.223C113.452 426.724 113.05 427.269 112.62 427.791C112.187 428.312 111.773 428.848 111.395 429.412L110.219 431.08L109.151 432.826C108.396 433.971 107.832 435.224 107.171 436.433C106.557 437.665 106.044 438.947 105.469 440.21L105.417 440.325C105.097 441.029 104.269 441.34 103.566 441.018C102.916 440.722 102.602 439.989 102.813 439.323C103.252 437.939 103.635 436.527 104.128 435.148C104.67 433.792 105.122 432.386 105.776 431.066L106.703 429.056L107.758 427.104C108.098 426.444 108.479 425.807 108.882 425.183C109.283 424.557 109.655 423.909 110.084 423.298C111.757 420.827 113.679 418.504 115.817 416.354C116.876 415.268 118.025 414.261 119.215 413.284C119.826 412.806 120.426 412.325 121.082 411.878C121.402 411.652 121.727 411.426 122.076 411.207C122.249 411.097 122.41 410.986 122.601 410.876C122.795 410.762 122.945 410.666 123.225 410.522L123.859 410.192C125.563 409.308 127.661 409.975 128.544 411.681C129.428 413.387 128.761 415.487 127.057 416.372C126.754 416.533 126.423 416.643 126.105 416.704Z" fill="#000073"/>
<path d="M70.8987 297.954C75.3887 297.502 79.7703 297.556 84.2151 297.952C88.6437 298.359 93.065 299.2 97.3924 300.571C101.702 301.977 105.926 303.954 109.719 306.733C111.63 308.098 113.374 309.721 114.998 311.461C116.621 313.212 118.001 315.182 119.259 317.224C120.247 318.829 119.75 320.931 118.148 321.922C116.545 322.912 114.444 322.414 113.455 320.81C113.414 320.741 113.374 320.67 113.336 320.6L113.273 320.477C112.382 318.764 111.404 317.081 110.192 315.553C108.974 314.035 107.65 312.575 106.125 311.3C103.116 308.708 99.5552 306.666 95.75 305.09C91.9285 303.545 87.8722 302.429 83.72 301.724C79.586 301.022 75.2839 300.649 71.1372 300.743L71.0667 300.745C70.2952 300.763 69.6538 300.15 69.6357 299.377C69.6231 298.645 70.1814 298.028 70.8987 297.954Z" fill="#000073"/>
<path d="M80.3394 345.943C82.448 343.864 84.6361 342.046 86.9633 340.295C89.2887 338.562 91.7351 336.971 94.3099 335.538C96.9009 334.131 99.6401 332.929 102.526 331.974C105.433 331.066 108.51 330.505 111.703 330.364C113.585 330.281 115.181 331.743 115.264 333.628C115.347 335.513 113.889 337.11 112.004 337.193C111.872 337.198 111.744 337.197 111.616 337.188L111.504 337.18C109.065 337.008 106.528 337.133 103.973 337.605C101.427 338.126 98.874 338.886 96.3733 339.883C93.8817 340.903 91.4316 342.106 89.0574 343.472C86.6977 344.836 84.3451 346.368 82.2257 348.01L82.1769 348.048C81.5662 348.522 80.6863 348.41 80.2129 347.799C79.7756 347.231 79.8389 346.433 80.3394 345.943Z" fill="#000073"/>
<path d="M315.395 410.525C315.675 410.67 315.825 410.767 316.019 410.88C316.21 410.99 316.371 411.1 316.544 411.211C316.891 411.428 317.216 411.654 317.538 411.882C318.194 412.329 318.794 412.81 319.403 413.287C320.593 414.264 321.743 415.272 322.801 416.357C324.939 418.508 326.861 420.831 328.534 423.302C328.963 423.911 329.335 424.561 329.736 425.186C330.139 425.81 330.52 426.447 330.86 427.108L331.915 429.059L332.842 431.069C333.498 432.388 333.95 433.795 334.49 435.152C334.983 436.528 335.368 437.941 335.805 439.327C336.038 440.063 335.632 440.848 334.896 441.083C334.215 441.299 333.491 440.966 333.203 440.329L333.151 440.213C332.576 438.951 332.063 437.668 331.449 436.436C330.788 435.228 330.224 433.974 329.469 432.829L328.401 431.084L327.225 429.416C326.847 428.851 326.433 428.316 325.999 427.795C325.569 427.272 325.168 426.729 324.718 426.227C322.955 424.188 321.004 422.339 318.933 420.695C317.905 419.863 316.817 419.121 315.724 418.421C315.173 418.088 314.62 417.743 314.064 417.455C313.785 417.303 313.509 417.155 313.236 417.03C313.1 416.965 312.958 416.891 312.835 416.842C312.714 416.789 312.555 416.717 312.515 416.708C310.629 416.35 309.391 414.528 309.749 412.641C310.107 410.753 311.926 409.514 313.811 409.872C314.145 409.935 314.459 410.044 314.747 410.192L315.395 410.525Z" fill="#000073"/>
<path d="M367.479 300.747C363.332 300.651 359.03 301.025 354.896 301.727C350.744 302.433 346.69 303.549 342.866 305.094C339.061 306.669 335.502 308.712 332.491 311.304C330.968 312.577 329.642 314.039 328.424 315.556C327.212 317.083 326.233 318.767 325.344 320.48L325.284 320.596C324.415 322.269 322.355 322.919 320.686 322.049C319.014 321.179 318.366 319.116 319.235 317.445C319.273 317.373 319.316 317.297 319.357 317.228C320.617 315.186 321.995 313.216 323.618 311.465C325.244 309.724 326.988 308.102 328.898 306.736C332.692 303.956 336.915 301.98 341.224 300.575C345.551 299.204 349.973 298.361 354.401 297.956C358.846 297.559 363.228 297.507 367.718 297.957C368.487 298.035 369.048 298.721 368.97 299.491C368.896 300.224 368.274 300.767 367.551 300.752L367.479 300.747Z" fill="#000073"/>
<path d="M356.394 348.012C354.275 346.37 351.922 344.838 349.563 343.474C347.188 342.108 344.738 340.905 342.247 339.885C339.744 338.89 337.193 338.128 334.647 337.607C332.092 337.135 329.554 337.01 327.116 337.182L327.008 337.189C325.127 337.322 323.495 335.903 323.362 334.022C323.23 332.139 324.646 330.504 326.527 330.372C326.657 330.363 326.791 330.361 326.919 330.366C330.112 330.507 333.189 331.068 336.096 331.976C338.982 332.931 341.721 334.132 344.312 335.54C346.887 336.972 349.335 338.564 351.658 340.297C353.988 342.046 356.176 343.866 358.282 345.945C358.833 346.487 358.841 347.376 358.297 347.927C357.795 348.439 356.996 348.483 356.443 348.052L356.394 348.012Z" fill="#000073"/>
<path d="M221.398 505.707C184.502 505.707 147.664 502.234 111.121 495.284C99.1993 493.018 87.9137 489.275 77.5768 484.165C48.1253 469.601 30.0623 446.724 29.2582 422.967C28.8065 409.637 34.3951 397.89 44.3219 391.003C34.5631 357.442 34.0192 326.466 42.712 298.9C52.3569 268.318 73.7354 240.665 106.255 216.71C107.769 215.593 109.901 215.917 111.016 217.435C112.131 218.951 111.807 221.087 110.291 222.201C49.7623 266.79 30.5573 322.17 51.5763 391.506C52.0353 393.018 51.3938 394.65 50.0297 395.444C40.7515 400.844 35.6617 410.791 36.0646 422.737C36.7819 443.94 53.4283 464.619 80.5924 478.052C90.3765 482.89 101.075 486.435 112.391 488.588C184.638 502.326 258.093 502.323 330.717 488.582C342.048 486.439 352.766 482.891 362.572 478.038C389.72 464.605 406.353 443.931 407.069 422.734C407.472 410.791 402.382 400.846 393.104 395.446C391.738 394.652 391.098 393.022 391.557 391.508C412.578 322.172 393.371 266.793 332.842 222.203C331.328 221.087 331.003 218.953 332.117 217.437C333.232 215.921 335.364 215.597 336.878 216.711C369.398 240.667 390.777 268.32 400.421 298.902C409.114 326.468 408.57 357.444 398.812 391.005C408.737 397.892 414.325 409.635 413.875 422.963C413.075 446.711 395.023 469.585 365.589 484.15C355.229 489.277 343.922 493.021 331.982 495.281C295.251 502.231 258.295 505.706 221.398 505.707Z" fill="#000073"/>
<path d="M51.1499 390.602C52.9676 393.588 54.9244 396.611 56.8974 399.567C58.8813 402.528 60.9158 405.458 63.0118 408.34C67.2199 414.085 71.6485 419.687 76.6245 424.718L76.6408 424.734C77.1847 425.284 77.181 426.17 76.6318 426.717C76.115 427.231 75.2947 427.252 74.7472 426.796C69.128 422.086 64.0923 416.797 59.268 411.355C56.8649 408.626 54.5232 405.845 52.2286 403.024C49.9321 400.191 47.7006 397.363 45.489 394.39C44.3634 392.879 44.676 390.739 46.1865 389.612C47.697 388.485 49.8327 388.798 50.9583 390.31C51.0216 390.395 51.0794 390.481 51.1336 390.569L51.1499 390.602Z" fill="#000073"/>
<path d="M397.579 394.489C395.039 397.656 392.473 400.58 389.797 403.499C387.127 406.401 384.373 409.219 381.538 411.956C378.712 414.7 375.755 417.312 372.73 419.839C369.691 422.354 366.509 424.7 363.23 426.894C362.586 427.325 361.717 427.153 361.287 426.509C360.881 425.901 361.013 425.091 361.571 424.64L361.602 424.615C364.587 422.22 367.459 419.693 370.19 417.006C372.907 414.306 375.552 411.533 378.064 408.633C380.583 405.741 383.016 402.778 385.36 399.744C387.687 396.723 389.987 393.586 392.054 390.499L392.087 390.45C393.135 388.883 395.252 388.464 396.817 389.513C398.382 390.562 398.801 392.682 397.753 394.25C397.699 394.333 397.639 394.415 397.579 394.489Z" fill="#000073"/>
<path d="M320.252 354.948C320.075 355.078 319.898 355.19 319.721 355.311C313.926 359.141 305.512 361.934 293.943 363.466C292.813 363.616 291.657 363.755 290.472 363.877C287.711 363.989 285.107 364.007 282.662 363.951C276.832 363.811 271.886 363.185 267.754 362.194C256.848 359.616 251.596 354.544 250.578 349.164C249.729 344.662 251.856 339.935 256.138 336.303C244.15 332.568 231.489 334.434 230.295 334.295C228.914 334.136 204.956 332.325 180.858 335.762C185.57 339.47 187.968 344.44 187.071 349.166C185.514 357.433 173.927 364.98 147.187 363.878C145.621 363.71 144.108 363.524 142.654 363.318C142.542 363.308 142.421 363.29 142.309 363.271H142.3C135.302 357.088 126.737 353.678 117.94 355.313C95.9217 340.769 111.455 311.246 134.78 278.609H302.881C326.018 310.982 341.486 340.283 320.252 354.948Z" fill="#5F537B"/>
<g opacity="0.55">
<path opacity="0.55" d="M287.66 331.641C268.983 333.476 255.392 339.268 257.735 357.455C243.994 343.472 255.018 328.092 287.66 331.641Z" fill="white"/>
</g>
<g opacity="0.55">
<path opacity="0.55" d="M142.997 280.552C120.867 311.524 105.744 339.686 123.079 354.911C121.38 354.864 119.664 354.995 117.938 355.313C95.9199 340.769 111.453 311.246 134.778 278.609H302.879C303.345 279.262 303.803 279.908 304.26 280.552H142.997Z" fill="white"/>
</g>
<path d="M157.687 330.102C197.529 299.837 238.863 300.365 281.609 330.102H157.687Z" fill="white"/>
<path d="M357.019 107.577C357.01 107.55 356.991 107.53 356.982 107.503C356.094 106.083 355.191 104.663 354.257 103.254C354.295 103.235 354.331 103.216 354.369 103.197C371.451 95.5005 383.338 78.3139 383.338 58.3451C383.338 31.1931 361.358 9.17667 334.226 9.17667C312.694 9.17667 294.389 23.0566 287.774 42.3632C286.039 41.4009 284.276 40.4675 282.503 39.5612C276.532 36.5077 270.385 33.9282 264.115 31.828C281.011 25.0554 265.525 13.7822 247.406 26.8318C265.747 13.2974 250.811 3.62145 223.382 24.9831C243.59 -7.24115 210.087 0.361765 193.173 22.9932C190.215 26.9439 186.074 29.8111 181.391 31.3252C174.581 33.5103 167.91 36.2563 161.443 39.563C159.055 40.7859 156.695 42.0575 154.371 43.3744C148.055 23.5414 129.489 9.17667 107.583 9.17667C80.4624 9.17667 58.4713 31.1913 58.4713 58.3451C58.4713 79.0067 71.1969 96.6871 89.231 103.963C88.4667 105.14 87.7096 106.316 86.9833 107.503C55.8785 157.708 54.7962 217.822 101.369 255.847C126.625 276.471 165.883 290.584 221.972 293.126C376.443 286.158 403.322 191.231 361.311 114.921C359.957 112.452 358.53 110.006 357.019 107.577ZM334.226 31.5929C348.986 31.5929 360.946 43.568 360.946 58.3433C360.946 71.1487 351.971 81.8431 339.963 84.4678C330.614 73.7083 319.791 63.761 307.72 55.0275C309.344 41.8115 320.597 31.5929 334.226 31.5929ZM80.8635 58.3433C80.8635 43.5662 92.8248 31.5929 107.583 31.5929C121.718 31.5929 133.285 42.5767 134.229 56.4946C125.375 63.061 117.23 70.2895 109.86 78.0154L109.804 78.0714C107.704 80.2765 105.661 82.5178 103.693 84.8061C103.563 84.788 103.431 84.7681 103.301 84.741C90.5753 82.7041 80.8635 71.6534 80.8635 58.3433Z" fill="white"/>
<path d="M155.696 43.3708C155.696 43.3708 131.121 58.6508 111.184 78.0136C111.166 78.0316 111.146 78.0515 111.128 78.0696C108.889 80.2458 106.707 82.478 104.625 84.7391C98.8776 90.9872 93.8962 97.5084 90.5553 103.961C72.5212 96.6853 59.7957 79.003 59.7957 58.3433C59.7957 31.1913 81.7849 9.17487 108.907 9.17487C130.814 9.17667 149.379 23.5414 155.696 43.3708Z" fill="#5F537B"/>
<g opacity="0.55">
<path opacity="0.55" d="M67.5687 61.8833C67.5687 79.4987 76.8234 94.9578 90.7342 103.635C90.6692 103.747 90.6132 103.85 90.5572 103.963C72.5231 96.6871 59.7975 79.0048 59.7975 58.3451C59.7975 31.1931 81.7868 9.17667 108.909 9.17667C117.698 9.17667 125.946 11.483 133.072 15.5278C127.95 13.7062 122.426 12.7167 116.681 12.7167C89.558 12.7167 67.5687 34.7314 67.5687 61.8833Z" fill="white"/>
</g>
<path d="M288.488 43.3708C288.488 43.3708 313.063 58.6508 332.999 78.0136C333.017 78.0316 333.037 78.0515 333.055 78.0696C335.294 80.2458 337.477 82.478 339.558 84.7391C345.306 90.9872 350.287 97.5084 353.628 103.961C371.662 96.6853 384.388 79.003 384.388 58.3433C384.388 31.1913 362.398 9.17487 335.276 9.17487C313.37 9.17667 294.803 23.5414 288.488 43.3708Z" fill="#5F537B"/>
<g opacity="0.55">
<path opacity="0.55" d="M374.363 28.5847C365.51 19.8512 353.353 14.4714 339.938 14.4714C318.722 14.4714 300.632 27.9497 293.775 46.8168C290.472 44.6027 288.484 43.3708 288.484 43.3708C294.801 23.5414 313.366 9.17487 335.272 9.17487C351.225 9.17667 365.398 16.7886 374.363 28.5847Z" fill="white"/>
</g>
<path d="M312.526 416.435C303.495 420.872 293.251 422.422 283.362 420.554C279.696 419.872 276.086 418.862 272.512 417.583H165.147C161.573 418.862 157.954 419.872 154.297 420.554C144.408 422.422 134.164 420.872 125.124 416.435C105.718 406.889 93.524 389.218 98.8614 372.274C101.241 364.736 107.119 358.674 114.601 356.171C115.721 355.796 116.83 355.507 117.942 355.311C126.739 353.676 135.304 357.086 142.302 363.269H142.311L142.506 363.437L142.656 363.316C144.11 363.522 145.623 363.708 147.189 363.877C173.928 364.978 185.516 357.431 187.073 349.165H250.58C252.147 357.431 263.736 364.978 290.473 363.877C303.842 362.466 313.359 359.515 319.723 355.311C320.832 355.507 321.943 355.798 323.062 356.171C330.544 358.674 336.421 364.736 338.792 372.274C344.126 389.218 331.931 406.889 312.526 416.435Z" fill="#5F537B"/>
<path d="M292.448 366.073C292.448 366.073 276.169 372.677 263.414 385.669C250.662 398.671 192.201 402.22 172.292 383.1C152.391 363.98 143.098 363.98 143.098 363.98L143.238 363.401C144.506 363.569 145.821 363.728 147.184 363.877C173.923 364.978 185.51 357.431 187.068 349.165C187.964 344.438 185.566 339.469 180.854 335.76C204.952 332.323 228.911 334.136 230.291 334.293C231.486 334.433 244.146 332.566 256.134 336.301C251.852 339.935 249.726 344.66 250.575 349.163C252.141 357.429 263.73 364.976 290.468 363.875C290.775 363.846 291.084 363.81 291.382 363.772L292.448 366.073Z" fill="white"/>
<path d="M362.272 58.3433C362.272 71.1487 353.297 81.8431 341.289 84.4678C331.94 73.7083 321.119 63.761 309.046 55.0275C310.669 41.8115 321.922 31.5929 335.552 31.5929C350.311 31.5929 362.272 43.568 362.272 58.3433Z" fill="#D878EF"/>
<g opacity="0.3">
<path opacity="0.3" d="M359.22 45.9124C355.386 43.7833 350.974 42.5677 346.28 42.5677C333.451 42.5677 322.722 51.6177 320.165 63.705C316.591 60.6967 312.878 57.8024 309.044 55.0275C310.667 41.8115 321.92 31.5929 335.551 31.5929C345.824 31.5929 354.743 37.3923 359.22 45.9124Z" fill="#000073"/>
</g>
<path d="M266.522 362.019L261.353 368.287C257.631 372.798 250.754 372.91 246.882 368.529L235.602 355.751H202.052L190.772 368.529C186.9 372.91 180.025 372.798 176.301 368.287L171.132 362.019L171.159 361.888C181.207 359.217 186.096 354.333 187.066 349.166C187.962 344.44 185.565 339.47 180.852 335.762C189.473 334.528 198.075 333.979 205.631 333.772H219.98C225.904 333.932 229.756 334.23 230.289 334.295C231.484 334.434 244.144 332.568 256.133 336.303C251.85 339.937 249.724 344.662 250.573 349.164C251.552 354.329 256.442 359.215 266.489 361.887L266.522 362.019Z" fill="#6161BC"/>
<path d="M135.553 56.4946C124.152 64.9567 113.909 74.5115 105.017 84.8061C92.1056 82.9284 82.1879 71.7945 82.1879 58.3451C82.1879 43.568 94.1492 31.5947 108.907 31.5947C123.042 31.5929 134.61 42.5767 135.553 56.4946Z" fill="#D878EF"/>
<g opacity="0.3">
<path opacity="0.3" d="M131.365 43.8574C127.876 42.1769 123.966 41.2417 119.842 41.2417C105.082 41.2417 93.1229 53.2168 93.1229 67.9921C93.1229 73.3248 94.6804 78.294 97.387 82.469C88.4016 78.1818 82.1897 68.9816 82.1897 58.3433C82.1897 43.5662 94.151 31.5929 108.909 31.5929C118.33 31.5929 126.615 36.477 131.365 43.8574Z" fill="#000073"/>
</g>
<path d="M142.298 363.271C131.457 361.702 123.5 358.983 117.938 355.313C126.736 353.678 135.302 357.086 142.298 363.271Z" fill="#5F537B"/>
<path d="M223.299 296.534C223.248 296.534 223.196 296.534 223.145 296.53C183.805 294.754 150.739 287.221 124.871 274.143C101.172 262.161 83.9008 245.806 73.5385 225.537C55.7466 190.731 60.2835 146.096 85.5613 105.457C67.7133 96.6202 56.3916 78.5454 56.3916 58.3433C56.3916 29.3516 79.951 5.76684 108.907 5.76684C130.481 5.76684 149.538 18.7423 157.539 38.4578C158.753 37.8029 159.982 37.1571 161.217 36.524C167.782 33.1667 174.664 30.3248 181.676 28.0745C185.781 26.7486 189.276 24.2812 191.773 20.9455C203.261 5.57148 222.574 -3.99955 230.761 1.62802C233.587 3.5708 235.768 7.41296 233.372 15.0123C242.637 9.72839 250.752 7.78199 255.802 9.88758C258.277 10.9187 259.867 12.9392 260.169 15.4283C260.267 16.2387 260.232 17.0708 260.066 17.9174C265.019 16.8936 269.258 17.4652 272.092 19.0335C274.805 20.5331 276.266 22.939 276.1 25.6307C276.004 27.1755 275.35 29.1183 273.292 31.0647C277.408 32.6891 281.452 34.5161 285.376 36.5258C286.032 36.8605 286.679 37.1951 287.313 37.5298C295.543 18.3787 314.452 5.76865 335.551 5.76865C364.509 5.76865 388.066 29.3552 388.066 58.3451C388.066 77.7296 377.374 95.4842 360.514 104.616C386.205 145.4 390.972 190.276 373.16 225.327C362.83 245.656 345.568 262.057 321.853 274.076C295.964 287.196 262.856 294.752 223.449 296.53C223.4 296.532 223.349 296.534 223.299 296.534ZM108.907 12.5847C83.7056 12.5847 63.2016 33.1124 63.2016 58.3433C63.2016 77.1181 74.4383 93.7838 91.8292 100.799C92.7742 101.18 93.5005 101.966 93.8059 102.941C94.1112 103.916 93.9649 104.976 93.4066 105.829C67.6085 145.28 62.4481 188.87 79.6041 222.429C94.1076 250.802 130.812 285.499 223.3 289.71C315.946 285.492 352.632 250.694 367.094 222.234C384.252 188.467 378.89 144.692 352.745 105.133C352.193 104.297 352.036 103.263 352.314 102.3C352.595 101.338 353.281 100.549 354.194 100.14C370.636 92.7744 381.258 76.3674 381.258 58.3433C381.258 33.1124 360.754 12.5847 335.552 12.5847C316.024 12.5847 298.651 24.9957 292.322 43.4685C291.995 44.4218 291.263 45.1815 290.324 45.5433C289.384 45.9051 288.332 45.8328 287.451 45.3443C285.834 44.4489 284.095 43.5246 282.279 42.5966C276.519 39.6498 270.492 37.1137 264.359 35.0606C263.004 34.6066 262.077 33.3548 262.036 31.9257C261.994 30.4967 262.849 29.1943 264.175 28.6624C267.738 27.2334 268.992 25.8622 269.256 25.3213C269.033 25.1133 268.416 24.7009 267.181 24.4458C263.687 23.7186 257.529 24.6955 250.721 29.5995C249.2 30.692 247.08 30.3538 245.978 28.8379C244.876 27.322 245.203 25.1983 246.712 24.0877C252.459 19.8457 253.451 16.9388 253.415 16.2966C252.1 15.2094 242.646 15.3343 226.8 27.6748C225.496 28.6914 223.651 28.6226 222.426 27.5119C221.201 26.4031 220.946 24.5724 221.826 23.1705C228.067 13.2178 228.286 8.19804 226.911 7.25378C223.252 4.74299 207.545 11.2334 197.23 25.0373C193.88 29.5108 189.225 32.8067 183.765 34.5722C177.096 36.7122 170.557 39.4129 164.322 42.602C161.96 43.8104 159.624 45.0694 157.378 46.3429C156.485 46.8494 155.412 46.9254 154.458 46.5509C153.502 46.1765 152.767 45.3896 152.456 44.4128C146.389 25.3738 128.889 12.5847 108.907 12.5847ZM105.017 88.2141C104.855 88.2141 104.69 88.2032 104.528 88.1779C89.8507 86.0452 78.782 73.2181 78.782 58.3433C78.782 41.7138 92.2954 28.1831 108.907 28.1831C124.688 28.1831 137.884 40.5163 138.95 56.263C139.028 57.4226 138.513 58.5405 137.58 59.2333C126.535 67.4314 116.446 76.7853 107.592 87.0347C106.942 87.7908 105.998 88.2141 105.017 88.2141ZM108.907 35.0027C96.0518 35.0027 85.592 45.4746 85.592 58.3433C85.592 69.2457 93.2711 78.7245 103.727 81.0996C112.169 71.5286 121.653 62.7372 131.963 54.9262C130.31 43.6168 120.511 35.0027 108.907 35.0027ZM341.289 87.8776C340.315 87.8776 339.374 87.4598 338.72 86.7055C329.4 75.9785 318.745 66.2501 307.051 57.7916C306.045 57.0644 305.514 55.8452 305.665 54.6115C307.516 39.5449 320.364 28.1831 335.552 28.1831C352.164 28.1831 365.678 41.712 365.678 58.3433C365.678 72.4131 355.728 84.8025 342.017 87.7999C341.773 87.8523 341.531 87.8776 341.289 87.8776ZM312.746 53.5117C323.618 61.5541 333.597 70.6639 342.458 80.6365C352.074 77.6518 358.866 68.5728 358.866 58.3433C358.866 45.4728 348.406 35.0027 335.552 35.0027C324.458 35.0027 314.978 42.8336 312.746 53.5117Z" fill="#000073"/>
<path d="M305.647 276.623C311.034 284.181 316.272 291.887 321.025 299.983C323.387 304.041 325.617 308.205 327.599 312.536C329.572 316.868 331.31 321.374 332.463 326.166L332.884 327.966L333.193 329.811C333.283 330.431 333.417 331.035 333.467 331.667L333.625 333.561L333.7 334.507L333.699 335.471L333.681 337.403C333.662 338.047 333.558 338.702 333.496 339.351C333.409 340 333.39 340.652 333.214 341.299L332.775 343.24C332.658 343.891 332.363 344.512 332.161 345.147C331.913 345.769 331.756 346.428 331.426 347.016L330.513 348.815C330.235 349.432 329.805 349.951 329.443 350.516C329.053 351.058 328.714 351.646 328.276 352.146L326.959 353.638C326.735 353.88 326.525 354.143 326.287 354.369L325.557 355.024C321.683 358.575 317.123 360.894 312.548 362.596C307.951 364.293 303.259 365.429 298.57 366.188C296.246 366.641 293.823 366.878 291.437 367.19C290.844 367.288 290.231 367.299 289.619 367.314L287.787 367.368C286.578 367.391 285.409 367.386 284.218 367.388C279.466 367.31 274.68 367.011 269.886 366.118C265.111 365.231 260.263 363.849 255.744 361.091C253.52 359.674 251.335 357.923 249.68 355.508C247.982 353.157 246.97 350.087 246.99 347.048C246.997 343.995 248.013 341.118 249.456 338.711C250.206 337.519 251.057 336.419 251.988 335.422C252.94 334.453 253.945 333.546 255.032 332.785C259.374 329.711 264.357 328.101 269.306 327.475C274.272 326.83 279.246 327.296 283.944 328.449C288.659 329.577 293.079 331.537 297.162 333.904C297.833 334.293 298.06 335.151 297.674 335.822C297.32 336.433 296.575 336.677 295.939 336.422L295.912 336.412C293.82 335.57 291.709 334.812 289.57 334.203C287.429 333.597 285.261 333.154 283.093 332.841C278.754 332.231 274.378 332.341 270.244 333.192C266.117 334.04 262.224 335.778 259.193 338.275C256.176 340.706 253.856 343.922 253.822 347.119C253.804 348.692 254.281 350.225 255.274 351.617C256.221 353.028 257.696 354.253 259.34 355.3C262.706 357.372 266.864 358.642 271.122 359.414C275.392 360.213 279.837 360.499 284.292 360.572L287.633 360.554L289.254 360.508C289.794 360.497 290.333 360.49 290.88 360.398C293.059 360.101 295.227 359.899 297.43 359.47C301.833 358.761 306.139 357.701 310.183 356.207C314.219 354.716 318.001 352.721 320.935 350.024C323.934 347.372 325.772 343.899 326.527 340.042C326.668 339.574 326.668 339.062 326.735 338.57C326.778 338.07 326.871 337.584 326.881 337.075L326.892 335.547L326.899 334.782L326.833 334.006L326.706 332.452C326.668 331.934 326.547 331.41 326.473 330.889L326.213 329.322L325.842 327.754C324.84 323.572 323.257 319.426 321.408 315.374C319.553 311.318 317.426 307.34 315.15 303.429C310.562 295.617 305.427 288.054 300.111 280.595L300.108 280.588C299.014 279.056 299.37 276.927 300.901 275.832C302.428 274.733 304.554 275.089 305.647 276.623Z" fill="#000073"/>
<path d="M154.028 133.844C154.028 133.844 187.791 128.785 189.182 161.049C190.573 193.313 183.292 231.105 130.297 225.852C78.4442 220.711 90.9674 177.123 96.2416 170.895C111.121 150.197 130.113 137.334 154.028 133.844Z" fill="#5F537B"/>
<path d="M155.441 209.924C169.611 209.924 181.098 197.449 181.098 182.059C181.098 166.67 169.611 154.195 155.441 154.195C141.271 154.195 129.784 166.67 129.784 182.059C129.784 197.449 141.271 209.924 155.441 209.924Z" fill="white"/>
<path d="M163.049 204.515C173.004 204.515 181.075 194.462 181.075 182.059C181.075 169.657 173.004 159.603 163.049 159.603C153.095 159.603 145.024 169.657 145.024 182.059C145.024 194.462 153.095 204.515 163.049 204.515Z" fill="#000073"/>
<path d="M159.085 181.204C162.95 181.204 166.083 177.649 166.083 173.264C166.083 168.88 162.95 165.325 159.085 165.325C155.22 165.325 152.087 168.88 152.087 173.264C152.087 177.649 155.22 181.204 159.085 181.204Z" fill="white"/>
<path d="M173.721 195.214C176.264 195.214 178.326 192.783 178.326 189.785C178.326 186.787 176.264 184.357 173.721 184.357C171.177 184.357 169.115 186.787 169.115 189.785C169.115 192.783 171.177 195.214 173.721 195.214Z" fill="white"/>
<path d="M155.441 212.726C139.75 212.726 126.985 198.969 126.985 182.059C126.985 165.15 139.75 151.393 155.441 151.393C171.131 151.393 183.897 165.15 183.897 182.059C183.897 198.969 171.131 212.726 155.441 212.726ZM155.441 156.995C142.838 156.995 132.584 168.239 132.584 182.058C132.584 195.876 142.838 207.122 155.441 207.122C168.045 207.122 178.299 195.878 178.299 182.059C178.299 168.241 168.045 156.995 155.441 156.995Z" fill="#000073"/>
<path d="M163.049 206.623C151.948 206.623 142.918 195.603 142.918 182.058C142.918 168.512 151.948 157.492 163.049 157.492C174.151 157.492 183.181 168.512 183.181 182.058C183.181 195.603 174.151 206.623 163.049 206.623ZM163.049 161.711C154.272 161.711 147.129 170.839 147.129 182.059C147.129 193.28 154.272 202.408 163.049 202.408C171.827 202.408 178.97 193.28 178.97 182.059C178.97 170.839 171.827 161.711 163.049 161.711Z" fill="#000073"/>
<path d="M139.598 332.106C143.966 329.946 148.615 328.226 153.491 327.295C158.353 326.347 163.433 326.144 168.436 326.965C173.424 327.781 178.368 329.614 182.605 332.808C184.714 334.409 186.636 336.37 188.128 338.752C189.597 341.131 190.64 343.991 190.66 347.044C190.698 350.082 189.673 353.151 187.978 355.503C186.322 357.918 184.139 359.669 181.913 361.085C177.394 363.842 172.548 365.226 167.771 366.112C162.977 367.008 158.191 367.304 153.439 367.382C152.248 367.38 151.079 367.384 149.87 367.362L148.036 367.308C147.424 367.293 146.813 367.281 146.219 367.185C143.832 366.872 141.409 366.633 139.085 366.183C134.397 365.425 129.704 364.287 125.108 362.59C120.533 360.888 115.972 358.569 112.098 355.018L111.368 354.363C111.132 354.137 110.92 353.875 110.696 353.632L109.379 352.14C108.942 351.643 108.6 351.053 108.212 350.51C107.85 349.946 107.42 349.427 107.142 348.81L106.23 347.01C105.899 346.42 105.74 345.764 105.494 345.141C105.292 344.506 104.997 343.888 104.88 343.235L104.441 341.294C104.267 340.646 104.248 339.997 104.161 339.346C104.099 338.696 103.995 338.041 103.977 337.397L103.958 335.465L103.957 334.501L104.031 333.555L104.188 331.661C104.239 331.03 104.372 330.424 104.463 329.805L104.772 327.96L105.184 326.159C106.325 321.37 107.905 316.788 110.024 312.516C112.153 308.25 114.561 304.191 117.073 300.237C122.144 292.357 127.764 284.949 133.639 277.786C134.131 277.186 135.014 277.101 135.614 277.593C136.164 278.043 136.281 278.824 135.92 279.412L135.916 279.418C133.506 283.347 131.126 287.283 128.775 291.219C126.445 295.166 124.224 299.162 122.067 303.162C119.94 307.176 117.994 311.26 116.283 315.379C114.581 319.491 112.839 323.561 111.825 327.747L111.448 329.311L111.188 330.878C111.114 331.399 110.993 331.924 110.955 332.441L110.828 333.995L110.761 334.771L110.768 335.536L110.779 337.065C110.79 337.571 110.882 338.059 110.926 338.559C110.994 339.049 110.994 339.563 111.133 340.031C111.887 343.888 113.726 347.361 116.724 350.013C119.658 352.71 123.442 354.705 127.476 356.196C131.522 357.692 135.828 358.752 140.231 359.459C142.433 359.888 144.6 360.09 146.781 360.387C147.326 360.479 147.867 360.487 148.407 360.497L150.028 360.543L153.368 360.561C157.822 360.488 162.269 360.202 166.538 359.403C170.795 358.631 174.955 357.361 178.321 355.289C179.967 354.242 181.44 353.017 182.386 351.606C183.384 350.214 183.848 348.683 183.848 347.108C183.844 345.529 183.284 343.881 182.343 342.348C181.385 340.816 180.048 339.416 178.487 338.237C175.352 335.863 171.417 334.348 167.332 333.689C163.236 333.014 158.961 333.168 154.79 333.982C150.608 334.778 146.531 336.279 142.645 338.199L142.612 338.215C140.925 339.047 138.883 338.354 138.052 336.667C137.221 334.982 137.911 332.938 139.598 332.106Z" fill="#000073"/>
<path d="M312.526 416.435C303.495 420.872 293.251 422.422 283.362 420.554C280.675 420.049 278.015 419.376 275.375 418.546C274.414 418.247 273.462 417.92 272.512 417.584H165.147C161.573 418.862 157.954 419.872 154.297 420.554C144.408 422.422 134.164 420.872 125.124 416.435C105.718 406.889 93.524 389.218 98.8614 372.274C101.241 364.736 107.119 358.674 114.601 356.171C135.761 349.108 156.612 372.722 158.617 395.401H279.043C280.733 376.336 295.724 356.628 313.021 355.004C313.366 354.975 313.702 354.948 314.038 354.939C315.372 354.864 316.707 354.901 318.06 355.06C319.721 355.246 321.39 355.612 323.062 356.171C330.544 358.674 336.421 364.736 338.792 372.274C344.126 389.218 331.931 406.889 312.526 416.435Z" fill="#5F537B"/>
<g opacity="0.55">
<path opacity="0.55" d="M335.458 365.503C333.043 363.374 330.206 361.72 327.1 360.684C325.43 360.123 323.759 359.759 322.099 359.573C320.745 359.414 319.412 359.378 318.078 359.452C317.742 359.461 317.406 359.49 317.061 359.517C304.232 360.718 292.676 371.867 286.874 385.318C285.499 388.505 282.991 391.066 279.77 392.353L279.406 392.497C282.261 374.386 296.6 356.547 313.021 355.006C313.366 354.977 313.702 354.949 314.038 354.94C315.372 354.866 316.707 354.902 318.06 355.062C319.721 355.248 321.39 355.613 323.062 356.172C328.126 357.862 332.454 361.196 335.458 365.503Z" fill="white"/>
</g>
<g opacity="0.55">
<path opacity="0.55" d="M137.886 359.888C132.772 358.151 127.307 357.918 121.83 359.749C114.348 362.252 108.47 368.314 106.091 375.852C101.127 391.6 111.316 407.982 128.369 417.875C127.269 417.444 126.186 416.96 125.122 416.437C105.717 406.891 93.5222 389.22 98.8596 372.275C101.239 364.738 107.117 358.676 114.599 356.172C122.762 353.444 130.879 355.293 137.886 359.888Z" fill="white"/>
</g>
<path d="M157.221 395.524C155.641 388.102 152.61 381.159 148.385 375.121C146.275 372.111 143.893 369.312 141.226 366.89C139.898 365.673 138.5 364.557 137.049 363.538C135.578 362.556 134.062 361.664 132.496 360.926C129.361 359.452 126.031 358.622 122.713 358.538C119.412 358.49 116.048 359.226 113.079 360.707C110.091 362.162 107.444 364.36 105.429 367.042C104.423 368.384 103.563 369.841 102.903 371.385C102.206 372.909 101.846 374.589 101.442 376.244C100.802 379.592 100.974 383.066 101.797 386.427C102.639 389.788 104.143 393.026 106.087 396.023C108.013 399.038 110.452 401.774 113.148 404.232C115.838 406.701 118.794 408.926 121.978 410.8L123.158 411.524C123.559 411.752 123.975 411.96 124.381 412.178C125.2 412.605 126.015 413.058 126.833 413.466C128.463 414.264 130.149 414.941 131.858 415.539C135.286 416.71 138.854 417.482 142.457 417.766C146.058 418.077 149.691 417.9 153.24 417.276C156.859 416.636 160.466 415.635 163.975 414.38L163.994 414.373L164.011 414.367C164.381 414.237 164.773 414.176 165.144 414.174H272.494H272.51C272.907 414.174 273.303 414.248 273.659 414.373C277.168 415.628 280.774 416.63 284.393 417.272C287.94 417.898 291.576 418.076 295.177 417.768C298.781 417.484 302.348 416.713 305.777 415.545C307.488 414.948 309.174 414.273 310.804 413.475C311.624 413.068 312.439 412.614 313.258 412.187L314.481 411.533L315.661 410.809C318.846 408.935 321.802 406.708 324.495 404.241C327.194 401.784 329.633 399.047 331.559 396.034C333.505 393.036 335.01 389.798 335.854 386.437C336.691 383.078 336.859 379.602 336.219 376.253C335.816 374.596 335.457 372.916 334.759 371.393C334.098 369.848 333.245 368.386 332.237 367.046C330.22 364.36 327.573 362.162 324.585 360.707C321.614 359.231 318.252 358.49 314.949 358.538C311.63 358.62 308.302 359.456 305.165 360.926C303.598 361.664 302.082 362.556 300.612 363.538C299.161 364.557 297.76 365.673 296.431 366.887C293.764 369.311 291.379 372.107 289.268 375.117C285.042 381.155 282.008 388.102 280.436 395.526L280.431 395.554C280.27 396.314 279.524 396.801 278.763 396.64C278.107 396.5 277.656 395.923 277.648 395.278C277.603 391.22 278.167 387.119 279.32 383.19C280.433 379.243 282.064 375.428 284.157 371.863C288.322 364.752 294.266 358.385 302.068 354.486C304.028 353.553 306.067 352.732 308.217 352.185C310.363 351.646 312.584 351.319 314.828 351.29C319.322 351.243 323.79 352.238 327.799 354.26C331.796 356.288 335.267 359.276 337.881 362.876C339.19 364.676 340.286 366.628 341.15 368.677C342.052 370.729 342.53 372.889 343.006 375.03C343.804 379.375 343.524 383.881 342.469 388.084C341.412 392.302 339.565 396.227 337.263 399.771C334.974 403.336 332.165 406.479 329.1 409.272C326.041 412.075 322.72 414.564 319.181 416.654L317.863 417.457C317.417 417.71 316.96 417.942 316.508 418.184C315.598 418.662 314.705 419.155 313.778 419.615C311.901 420.532 309.96 421.312 307.987 421.999C304.034 423.349 299.912 424.237 295.737 424.568C291.565 424.924 287.339 424.72 283.203 423.989C279.139 423.267 275.2 422.167 271.362 420.796L272.512 420.995H272.495H165.145L166.293 420.796L166.271 420.803C162.433 422.175 158.494 423.273 154.431 423.994C150.297 424.723 146.071 424.924 141.899 424.566C137.723 424.233 133.603 423.343 129.65 421.994C127.677 421.306 125.736 420.523 123.861 419.608C122.936 419.146 122.041 418.654 121.131 418.177C120.679 417.933 120.222 417.703 119.776 417.448L118.46 416.645C114.921 414.555 111.601 412.066 108.542 409.261C105.48 406.466 102.67 403.324 100.383 399.758C98.0826 396.216 96.2378 392.289 95.1826 388.071C94.1166 383.869 93.851 379.363 94.646 375.018C95.123 372.878 95.6018 370.718 96.5052 368.667C97.3707 366.617 98.4621 364.663 99.7738 362.864C102.39 359.264 105.863 356.275 109.861 354.251C113.874 352.238 118.341 351.239 122.835 351.29C125.077 351.319 127.299 351.646 129.444 352.191C131.592 352.737 133.632 353.558 135.591 354.492C143.389 358.392 149.337 364.754 153.502 371.865C155.594 375.432 157.226 379.245 158.339 383.192C159.492 387.123 160.054 391.224 160.005 395.281C159.996 396.059 159.358 396.681 158.581 396.672C157.911 396.665 157.356 396.188 157.222 395.558L157.221 395.524Z" fill="#000073"/>
<path d="M249.149 211.861C247.937 221.838 244.177 229.524 239.063 234.942C227.158 247.608 207.949 247.888 196.958 236.099C191.845 230.625 188.506 222.527 188.506 211.861C208.725 215.906 228.932 215.906 249.149 211.861Z" fill="#000073"/>
<path d="M239.063 234.942C227.158 247.608 207.949 247.888 196.958 236.099C208.864 223.435 228.074 223.155 239.063 234.942Z" fill="#EF4141"/>
<path d="M204.652 179.755C211.762 175.654 229.281 175.555 236.892 179.458C239.745 180.922 240.529 184.377 238.623 186.83C229.72 198.277 210.723 199.914 202.814 186.423C201.449 184.095 202.225 181.153 204.652 179.755Z" fill="#000073"/>
<g opacity="0.4">
<path opacity="0.4" d="M216.014 181.171C218.153 180.511 223.425 180.495 225.714 181.124C226.573 181.359 226.809 181.917 226.235 182.311C223.555 184.152 217.84 184.417 215.459 182.246C215.05 181.87 215.284 181.396 216.014 181.171Z" fill="white"/>
</g>
<path d="M216.931 247.501C216.313 247.501 215.699 247.483 215.085 247.445C200.462 246.557 185.707 235.211 185.707 211.863C185.707 211.024 186.083 210.228 186.732 209.696C187.381 209.164 188.232 208.949 189.055 209.116C208.811 213.072 228.844 213.072 248.6 209.116C249.478 208.94 250.392 209.195 251.05 209.808C251.71 210.42 252.035 211.31 251.926 212.202C249.073 235.692 232.485 247.501 216.931 247.501ZM191.431 215.266C192.745 232.671 204.132 241.166 215.425 241.852C227.682 242.59 241.877 234.554 245.758 215.349C227.711 218.493 209.475 218.464 191.431 215.266Z" fill="#000073"/>
<path d="M220.905 217.683C219.36 217.683 218.106 216.429 218.106 214.881V193.181C218.106 191.634 219.36 190.379 220.905 190.379C222.449 190.379 223.703 191.632 223.703 193.181V214.881C223.703 216.427 222.449 217.683 220.905 217.683Z" fill="#000073"/>
<path d="M283.904 132.399C283.904 132.399 248.063 127.339 246.585 159.603C245.107 191.867 252.837 229.66 309.093 224.406C364.139 219.266 350.844 175.678 345.246 169.449C329.451 148.754 309.29 135.89 283.904 132.399Z" fill="#5F537B"/>
<path d="M287.546 209.924C301.716 209.924 313.203 197.449 313.203 182.059C313.203 166.67 301.716 154.195 287.546 154.195C273.376 154.195 261.889 166.67 261.889 182.059C261.889 197.449 273.376 209.924 287.546 209.924Z" fill="white"/>
<path d="M279.94 204.515C289.895 204.515 297.965 194.462 297.965 182.059C297.965 169.657 289.895 159.603 279.94 159.603C269.985 159.603 261.915 169.657 261.915 182.059C261.915 194.462 269.985 204.515 279.94 204.515Z" fill="#000073"/>
<path d="M283.904 181.204C287.769 181.204 290.902 177.649 290.902 173.264C290.902 168.88 287.769 165.325 283.904 165.325C280.039 165.325 276.906 168.88 276.906 173.264C276.906 177.649 280.039 181.204 283.904 181.204Z" fill="white"/>
<path d="M269.267 195.214C271.81 195.214 273.872 192.783 273.872 189.785C273.872 186.787 271.81 184.357 269.267 184.357C266.723 184.357 264.661 186.787 264.661 189.785C264.661 192.783 266.723 195.214 269.267 195.214Z" fill="white"/>
<path d="M287.546 212.726C271.856 212.726 259.09 198.969 259.09 182.059C259.09 165.15 271.856 151.393 287.546 151.393C303.237 151.393 316.002 165.15 316.002 182.059C316.002 198.969 303.237 212.726 287.546 212.726ZM287.546 156.995C274.942 156.995 264.688 168.239 264.688 182.058C264.688 195.876 274.944 207.122 287.546 207.122C300.149 207.122 310.405 195.878 310.405 182.059C310.405 168.241 300.151 156.995 287.546 156.995Z" fill="#000073"/>
<path d="M279.94 206.623C268.838 206.623 259.808 195.603 259.808 182.058C259.808 168.512 268.838 157.492 279.94 157.492C291.041 157.492 300.071 168.512 300.071 182.058C300.071 195.603 291.039 206.623 279.94 206.623ZM279.94 161.711C271.162 161.711 264.019 170.839 264.019 182.059C264.019 193.28 271.162 202.408 279.94 202.408C288.717 202.408 295.86 193.28 295.86 182.059C295.86 170.839 288.717 161.711 279.94 161.711Z" fill="#000073"/>
<path d="M309.095 131.605C308.135 131.605 307.181 131.201 306.507 130.415C297.916 120.38 284.094 120.417 283.945 120.397C283.935 120.397 283.922 120.397 283.911 120.397C282.048 120.397 280.525 118.897 280.501 117.03C280.478 115.151 281.974 113.608 283.851 113.579C284.54 113.581 300.968 113.465 311.679 125.977C312.902 127.406 312.737 129.559 311.308 130.785C310.667 131.335 309.879 131.605 309.095 131.605Z" fill="#000073"/>
<path d="M133.894 131.605C133.11 131.605 132.322 131.335 131.679 130.784C130.25 129.557 130.085 127.405 131.309 125.975C142.021 113.463 158.447 113.575 159.136 113.577C161.017 113.606 162.518 115.156 162.489 117.039C162.46 118.904 160.941 120.397 159.085 120.397C159.069 120.397 159.089 120.399 159.029 120.397C158.534 120.397 144.959 120.511 136.482 130.415C135.808 131.201 134.854 131.605 133.894 131.605Z" fill="#000073"/>
<path d="M317.396 400.973C320.294 395.948 317.79 389.068 311.803 385.607C305.816 382.147 298.613 383.415 295.715 388.441C292.817 393.467 295.32 400.347 301.307 403.807C307.294 407.268 314.497 405.999 317.396 400.973Z" fill="#000073"/>
<path d="M321.401 377.791C322.793 375.377 321.591 372.073 318.715 370.411C315.84 368.749 312.381 369.359 310.989 371.772C309.597 374.186 310.799 377.49 313.674 379.152C316.549 380.814 320.009 380.205 321.401 377.791Z" fill="#000073"/>
<path d="M331.508 388.689C332.9 386.275 331.698 382.971 328.823 381.309C325.948 379.647 322.488 380.257 321.096 382.67C319.704 385.084 320.906 388.388 323.782 390.05C326.657 391.712 330.116 391.102 331.508 388.689Z" fill="#000073"/>
<path d="M306.63 377.457C307.868 375.31 306.798 372.371 304.24 370.892C301.683 369.413 298.605 369.956 297.367 372.103C296.128 374.25 297.198 377.19 299.756 378.668C302.314 380.147 305.391 379.605 306.63 377.457Z" fill="#000073"/>
<path d="M134.04 403.79C140.027 400.329 142.531 393.45 139.633 388.424C136.734 383.398 129.531 382.129 123.544 385.59C117.557 389.051 115.054 395.93 117.952 400.956C120.85 405.982 128.053 407.251 134.04 403.79Z" fill="#000073"/>
<path d="M121.674 379.132C124.549 377.47 125.751 374.166 124.359 371.752C122.967 369.339 119.508 368.729 116.632 370.391C113.757 372.053 112.555 375.357 113.947 377.771C115.339 380.185 118.798 380.794 121.674 379.132Z" fill="#000073"/>
<path d="M111.563 390.032C114.439 388.37 115.641 385.066 114.249 382.652C112.857 380.239 109.397 379.629 106.522 381.291C103.647 382.953 102.445 386.257 103.837 388.671C105.229 391.085 108.688 391.694 111.563 390.032Z" fill="#000073"/>
<path d="M135.59 378.652C138.148 377.173 139.218 374.234 137.979 372.086C136.741 369.939 133.663 369.397 131.105 370.875C128.548 372.354 127.478 375.293 128.716 377.441C129.955 379.588 133.032 380.13 135.59 378.652Z" fill="#000073"/>
<path d="M183.642 375.153C183.57 375.153 183.498 375.153 183.425 375.152C179.642 375.088 176.089 373.377 173.677 370.457L168.506 364.197C167.308 362.744 167.511 360.595 168.961 359.396C170.411 358.196 172.557 358.401 173.757 359.85L178.928 366.111C180.068 367.493 181.748 368.301 183.539 368.332C185.303 368.37 187.037 367.61 188.222 366.266L199.504 353.493C200.151 352.761 201.08 352.343 202.056 352.343H235.598C236.574 352.343 237.502 352.761 238.149 353.493L249.433 366.268C250.618 367.61 252.336 368.374 254.116 368.334C255.905 368.305 257.587 367.494 258.727 366.112L263.898 359.852C265.098 358.401 267.245 358.198 268.694 359.398C270.143 360.597 270.347 362.746 269.149 364.199L263.978 370.459C261.568 373.379 258.014 375.09 254.23 375.153C250.455 375.179 246.838 373.625 244.33 370.787L234.064 359.164H203.591L193.325 370.787C190.866 373.569 187.346 375.153 183.642 375.153Z" fill="#000073"/>
<path d="M259.77 337.18H177.884C176.003 337.18 174.478 335.654 174.478 333.771C174.478 331.887 176.003 330.361 177.884 330.361H259.768C261.649 330.361 263.174 331.887 263.174 333.771C263.174 335.654 261.651 337.18 259.77 337.18Z" fill="#000073"/>
<path d="M228.504 345.429H207.041C205.196 345.429 203.7 343.931 203.7 342.084V337.115C203.7 335.268 205.196 333.771 207.041 333.771H228.504C230.349 333.771 231.845 335.268 231.845 337.115V342.084C231.845 343.933 230.349 345.429 228.504 345.429Z" fill="#000073"/>
<path d="M195.663 344.029H185.539C183.826 344.029 182.437 342.638 182.437 340.923V336.875C182.437 335.16 183.826 333.769 185.539 333.769H195.663C197.376 333.769 198.765 335.16 198.765 336.875V340.923C198.765 342.638 197.376 344.029 195.663 344.029Z" fill="#000073"/>
<path d="M251.607 344.029H241.483C239.77 344.029 238.38 342.638 238.38 340.923V336.875C238.38 335.16 239.77 333.769 241.483 333.769H251.607C253.319 333.769 254.709 335.16 254.709 336.875V340.923C254.707 342.638 253.319 344.029 251.607 344.029Z" fill="#000073"/>
<path d="M188.783 319.9H184.565C180.876 319.9 177.884 322.895 177.884 326.589V326.96C177.884 327.875 178.626 328.619 179.541 328.619H182.359V330.603H190.989V328.619H193.807C194.722 328.619 195.464 327.875 195.464 326.96V326.589C195.464 322.893 192.474 319.9 188.783 319.9Z" fill="#000073"/>
<path d="M251.055 319.9H246.838C243.149 319.9 240.156 322.895 240.156 326.589V326.96C240.156 327.875 240.899 328.619 241.813 328.619H244.632V330.603H253.261V328.619H256.08C256.994 328.619 257.737 327.875 257.737 326.96V326.589C257.737 322.893 254.745 319.9 251.055 319.9Z" fill="#000073"/>
<g opacity="0.3">
<path opacity="0.3" d="M214.745 290.411C369.216 283.443 396.094 188.517 354.083 112.206C352.293 109.265 350.827 106.77 349.792 104.865C349.783 104.836 349.763 104.818 349.754 104.791C348.99 103.38 348.112 101.942 347.142 100.486C341.367 91.7488 332.437 82.3821 325.497 75.6566C396.671 240.338 218.2 299.587 100.78 254.252L101.367 255.849C111.323 263.979 123.465 271.091 137.947 276.887C158.908 284.253 184.35 289.034 214.745 290.411Z" fill="#000073"/>
</g>
<g opacity="0.3">
<path opacity="0.3" d="M320.252 354.948C311.136 351.257 298.7 359.778 293.943 363.466C292.701 364.419 291.984 365.054 291.984 365.054L282.664 363.953L267.756 362.196C300.568 349.494 322.923 331.84 282.525 284.559L302.715 278.609H302.883C326.018 310.982 341.486 340.283 320.252 354.948Z" fill="#000073"/>
</g>
<g opacity="0.3">
<path opacity="0.3" d="M171.131 330.601C174.698 348.752 160.668 355.807 134.666 355.311C157.687 376.72 209.863 350.827 171.131 330.601Z" fill="#000073"/>
</g>
<g opacity="0.3">
<path opacity="0.3" d="M150.094 331.623C150.094 331.623 157.353 307.423 177.884 299.35C177.884 299.35 169.301 314.142 171.576 333.678C171.576 333.678 164.591 328.402 150.094 331.623Z" fill="#000073"/>
</g>
<g opacity="0.3">
<path opacity="0.3" d="M287.355 331.992C287.355 331.992 280.753 307.606 260.447 298.979C260.447 298.979 268.627 313.997 265.826 333.465C265.826 333.467 272.953 328.382 287.355 331.992Z" fill="#000073"/>
</g>
<g opacity="0.3">
<path opacity="0.3" d="M173.639 365.054C173.639 365.054 174.232 379.211 182.439 390.73C170.084 390.531 157.647 383.263 145.084 365.054H173.639Z" fill="#000073"/>
</g>
<g opacity="0.3">
<path opacity="0.3" d="M266.524 365.054C266.524 365.054 266.385 383.724 259.768 390.73C259.768 390.73 273.563 375.913 284.814 376.705L290.358 365.052" fill="#000073"/>
</g>
<g opacity="0.3">
<path opacity="0.3" d="M312.526 416.435C303.495 420.872 293.251 422.422 283.362 420.554C280.675 420.049 278.015 419.376 275.376 418.546L275.068 417.873C300.436 424.785 346.925 378.046 313.021 355.004C312.974 354.975 312.918 354.939 312.862 354.901L314.038 354.939L318.06 355.06C319.721 355.246 321.39 355.611 323.062 356.17C330.544 358.674 336.421 364.736 338.792 372.273C344.126 389.218 331.931 406.889 312.526 416.435Z" fill="#000073"/>
</g>
</g>
<defs>
<clipPath id="clip0_5_1695">
<rect width="445" height="532" fill="white"/>
</clipPath>
</defs>
</svg>
